<svg width="134" height="40" viewBox="0 0 134 40" fill="none" xmlns="http://www.w3.org/2000/svg">
<path d="M0 11.4286C0 5.11675 5.11675 0 11.4286 0H28.5714C34.8833 0 40 5.11675 40 11.4286V28.5714C40 34.8833 34.8833 40 28.5714 40H11.4286C5.11674 40 0 34.8833 0 28.5714V11.4286Z" fill="white"/>
<path d="M20 0C20 0 21.3533 10.3084 25.4018 14.5982C29.7136 19.1669 40 20 40 20C40 20 29.7136 20.8331 25.4018 25.4018C21.3533 29.6916 20 40 20 40C20 40 18.6467 29.6916 14.5982 25.4018C10.2864 20.8331 0 20 0 20C0 20 10.2864 19.1669 14.5982 14.5982C18.6467 10.3084 20 0 20 0Z" fill="#3E6FF2"/>
<path d="M61.5173 9.77143C63.6316 9.77143 65.4792 10.2 67.0602 11.0571C68.6601 11.9143 69.8887 13.1048 70.7459 14.6286C71.603 16.1524 72.0316 17.8857 72.0316 19.8286C72.0316 21.7524 71.603 23.4857 70.7459 25.0286C69.8887 26.5714 68.6601 27.7905 67.0602 28.6857C65.4792 29.5619 63.6316 30 61.5173 30H53.0887V9.77143H61.5173ZM60.9459 24.3429C62.3744 24.3429 63.5078 23.9524 64.3459 23.1714C65.184 22.3905 65.603 21.2762 65.603 19.8286C65.603 18.381 65.184 17.2667 64.3459 16.4857C63.5078 15.7048 62.3744 15.3143 60.9459 15.3143H59.4316V24.3429H60.9459Z" fill="#0F2751"/>
<path d="M80.6648 14.8286V17.3143H86.9506V22.0857H80.6648V24.9429H87.8077V30H74.322V9.77143H87.8077V14.8286H80.6648Z" fill="#0F2751"/>
<path d="M106.741 16.7143C106.741 17.9905 106.446 19.1524 105.855 20.2C105.265 21.2286 104.389 22.0476 103.227 22.6571C102.084 23.2667 100.693 23.5714 99.0552 23.5714H96.541V30H90.1981V9.77143H99.0552C101.531 9.77143 103.427 10.4 104.741 11.6571C106.074 12.9143 106.741 14.6 106.741 16.7143ZM98.341 18.5714C99.6552 18.5714 100.312 17.9524 100.312 16.7143C100.312 15.4762 99.6552 14.8571 98.341 14.8571H96.541V18.5714H98.341Z" fill="#0F2751"/>
<path d="M124.639 9.77143V14.8H119.267V30H112.924V14.8H107.61V9.77143H124.639Z" fill="#0F2751"/>
<path d="M129.502 30.2286C128.397 30.2286 127.511 29.9333 126.845 29.3429C126.178 28.7524 125.845 28.0095 125.845 27.1143C125.845 26.2 126.178 25.4476 126.845 24.8571C127.511 24.2476 128.397 23.9429 129.502 23.9429C130.587 23.9429 131.464 24.2476 132.13 24.8571C132.797 25.4476 133.13 26.2 133.13 27.1143C133.13 28.0095 132.797 28.7524 132.13 29.3429C131.464 29.9333 130.587 30.2286 129.502 30.2286Z" fill="#0F2751"/>
</svg>
