<svg width="106" height="110" viewBox="0 0 106 110" fill="none" xmlns="http://www.w3.org/2000/svg">
<path d="M96.4257 44.5308C100.428 46.836 100.434 52.6095 96.4368 54.9231L39.8956 87.6477C35.8981 89.9614 30.895 87.08 30.8901 82.4612L30.8203 17.1328C30.8154 12.514 35.8123 9.62189 39.8148 11.927L96.4257 44.5308Z" fill="#3E6FF2"/>
<path d="M90.4823 54.9899C94.4848 57.2951 94.491 63.0686 90.4934 65.3822L33.9522 98.1069C29.9547 100.421 24.9516 97.5391 24.9467 92.9203L24.877 27.5919C24.872 22.9731 29.8689 20.081 33.8714 22.3861L90.4823 54.9899Z" fill="#3E6FF2" fill-opacity="0.3"/>
<path fill-rule="evenodd" clip-rule="evenodd" d="M64.7916 36.3607C60.8897 34.3907 56.2555 34.8238 52.8074 37.3671L52.5254 37.2848C49.5733 36.4226 47.0707 37.839 45.3683 38.9405L44.6534 39.4031L45.201 40.055L47.3056 42.5606L42.4384 47.2837L50.1733 56.4924L55.6658 52.5137L57.7704 55.0192L58.318 55.6712L58.897 55.0469C60.2759 53.5602 62.1032 51.3397 61.7636 48.2831L61.7312 47.9912C64.8317 45.034 66.0583 40.5442 64.7916 36.3607ZM60.2994 49.1571L56.8864 51.6295L58.3637 53.3883C59.3743 52.2061 60.2534 50.8341 60.2994 49.1571ZM46.9099 39.7522C48.2488 38.9609 49.752 38.3319 51.4118 38.5761L48.3873 41.511L46.9099 39.7522ZM50.4245 54.4542L59.6575 47.7659C62.9243 45.3994 64.4273 41.3152 63.5217 37.4274C59.8486 35.8641 55.5663 36.6394 52.6713 39.4486L44.4893 47.3882L50.4245 54.4542ZM46.6719 55.682L45.7051 54.5309L43.7713 52.2287L42.8044 51.0776C42.4035 51.4144 42.0842 51.8304 41.863 52.2941C41.6776 52.6827 41.5611 53.1049 41.5231 53.5421L41.4152 54.7828L41.2849 56.2804L42.7825 56.4107L44.0232 56.5186C44.4604 56.5566 44.8964 56.5148 45.3112 56.3993C45.8061 56.2614 46.271 56.0188 46.6719 55.682ZM44.1535 55.021L43.0207 53.6724L42.9128 54.9131L44.1535 55.021ZM58.7837 43.3705C58.148 43.9045 57.1997 43.822 56.6658 43.1862C56.1318 42.5505 56.2142 41.6023 56.85 41.0683C57.4857 40.5343 58.434 40.6168 58.9679 41.2525C59.5019 41.8882 59.4195 42.8365 58.7837 43.3705ZM59.7506 44.5216C58.4791 45.5895 56.5826 45.4246 55.5147 44.1531C54.4467 42.8817 54.6116 40.9852 55.8831 39.9172C57.1546 38.8492 59.0511 39.0142 60.119 40.2856C61.187 41.5571 61.0221 43.4536 59.7506 44.5216Z" fill="white"/>
</svg>
