<svg width="106" height="110" viewBox="0 0 106 110" fill="none" xmlns="http://www.w3.org/2000/svg">
<path d="M96.4257 44.5308C100.428 46.836 100.434 52.6095 96.4368 54.9231L39.8956 87.6478C35.8981 89.9614 30.895 87.08 30.89 82.4612L30.8203 17.1328C30.8154 12.514 35.8123 9.62189 39.8148 11.927L96.4257 44.5308Z" fill="#3E6FF2"/>
<path d="M90.4823 54.9899C94.4848 57.2951 94.491 63.0686 90.4934 65.3822L33.9522 98.1069C29.9547 100.421 24.9516 97.5391 24.9467 92.9203L24.8769 27.5919C24.872 22.9731 29.8689 20.081 33.8714 22.3861L90.4823 54.9899Z" fill="#3E6FF2" fill-opacity="0.3"/>
<path d="M51.1899 42.0849C50.6871 42.0849 50.2794 42.4925 50.2794 42.9954C50.2794 43.4982 50.6871 43.9059 51.1899 43.9059H63.0263C63.5292 43.9059 63.9368 43.4982 63.9368 42.9954C63.9368 42.4925 63.5292 42.0849 63.0263 42.0849H51.1899Z" fill="white"/>
<path d="M50.2794 49.3688C50.2794 48.866 50.6871 48.4583 51.1899 48.4583H63.0263C63.5292 48.4583 63.9368 48.866 63.9368 49.3688C63.9368 49.8717 63.5292 50.2793 63.0263 50.2793H51.1899C50.6871 50.2793 50.2794 49.8717 50.2794 49.3688Z" fill="white"/>
<path d="M51.1899 53.9213C50.6871 53.9213 50.2794 54.3289 50.2794 54.8318C50.2794 55.3346 50.6871 55.7422 51.1899 55.7422H57.5634C58.0662 55.7422 58.4739 55.3346 58.4739 54.8318C58.4739 54.3289 58.0662 53.9213 57.5634 53.9213H51.1899Z" fill="white"/>
<path fill-rule="evenodd" clip-rule="evenodd" d="M43.906 38.4429C43.906 36.4315 45.5366 34.801 47.548 34.801H65.7578C67.7692 34.801 69.3997 36.4315 69.3997 38.4429V60.2947C69.3997 62.3061 67.7692 63.9367 65.7578 63.9367H47.548C45.5366 63.9367 43.906 62.3061 43.906 60.2947V38.4429ZM47.548 36.6219H65.7578C66.7635 36.6219 67.5788 37.4372 67.5788 38.4429V60.2947C67.5788 61.3004 66.7635 62.1157 65.7578 62.1157H47.548C46.5423 62.1157 45.727 61.3004 45.727 60.2947V38.4429C45.727 37.4372 46.5423 36.6219 47.548 36.6219Z" fill="white"/>
</svg>
