<svg width="106" height="110" viewBox="0 0 106 110" fill="none" xmlns="http://www.w3.org/2000/svg">
<path d="M96.4257 44.5308C100.428 46.836 100.434 52.6095 96.4368 54.9231L39.8956 87.6477C35.8981 89.9614 30.895 87.08 30.8901 82.4612L30.8203 17.1328C30.8154 12.514 35.8123 9.62189 39.8148 11.927L96.4257 44.5308Z" fill="#3E6FF2"/>
<path d="M90.4823 54.9899C94.4848 57.2951 94.491 63.0686 90.4934 65.3822L33.9522 98.1069C29.9547 100.421 24.9516 97.5391 24.9467 92.9203L24.877 27.5919C24.872 22.9731 29.8689 20.081 33.8714 22.3861L90.4823 54.9899Z" fill="#3E6FF2" fill-opacity="0.3"/>
<path fill-rule="evenodd" clip-rule="evenodd" d="M48.6698 39.0867C49.0253 38.7311 49.0253 38.1547 48.6698 37.7991C48.3142 37.4435 47.7377 37.4435 47.3821 37.7991L41.2754 43.9058L47.3821 50.0126C47.7377 50.3682 48.3142 50.3682 48.6698 50.0126C49.0253 49.657 49.0253 49.0805 48.6698 48.725L44.7611 44.8163H59.8623C60.3652 44.8163 60.7728 44.4087 60.7728 43.9058C60.7728 43.403 60.3652 42.9954 59.8623 42.9954H44.7611L48.6698 39.0867ZM63.0167 59.6509C62.6611 60.0064 62.6611 60.5829 63.0167 60.9385C63.3723 61.294 63.9488 61.294 64.3043 60.9385L70.4111 54.8317L64.3043 48.725C63.9488 48.3694 63.3723 48.3694 63.0167 48.725C62.6611 49.0805 62.6611 49.657 63.0167 50.0126L66.9253 53.9212H51.8241C51.3213 53.9212 50.9136 54.3289 50.9136 54.8317C50.9136 55.3346 51.3213 55.7422 51.8241 55.7422H66.9253L63.0167 59.6509Z" fill="white"/>
</svg>
